<?xml version="1.0" standalone="no"?>
<!DOCTYPE svg PUBLIC "-//W3C//DTD SVG 20010904//EN"
 "http://www.w3.org/TR/2001/REC-SVG-20010904/DTD/svg10.dtd">
<svg version="1.0" xmlns="http://www.w3.org/2000/svg"
 width="2180.000000pt" height="2180.000000pt" viewBox="0 0 2180.000000 2180.000000"
 preserveAspectRatio="xMidYMid meet">
<metadata>
Created by potrace 1.11, written by Peter Selinger 2001-2013
</metadata>
<g transform="translate(0.000000,2180.000000) scale(0.100000,-0.100000)"
fill="#000000" stroke="none">
<path d="M0 10900 l0 -10900 10900 0 10900 0 0 10900 0 10900 -10900 0 -10900
0 0 -10900z m14521 7825 c198 -28 315 -57 459 -115 210 -84 393 -198 570 -355
352 -313 650 -794 843 -1360 65 -191 153 -528 177 -680 6 -38 15 -95 20 -125
5 -30 14 -95 20 -145 6 -49 15 -119 20 -155 5 -36 14 -171 21 -300 16 -317 1
-626 -47 -960 -35 -236 -46 -299 -78 -420 -65 -252 -72 -275 -143 -470 -221
-604 -595 -1098 -1042 -1375 -9 -5 -27 -17 -41 -26 -54 -35 -240 -127 -340
-168 -58 -24 -118 -50 -135 -57 -16 -7 -55 -20 -85 -28 -30 -8 -75 -21 -100
-29 -40 -13 -72 -21 -160 -42 -143 -32 -494 -46 -643 -25 -311 45 -668 200
-895 389 -101 83 -249 221 -282 261 -19 24 -50 59 -68 79 -75 83 -312 421
-312 446 0 4 -13 25 -28 48 -35 53 -202 394 -202 413 0 3 -16 45 -36 92 -20
48 -40 96 -44 107 -67 163 -191 645 -228 890 -49 318 -63 475 -69 780 -7 340
7 526 72 937 36 223 145 609 206 730 5 10 9 22 9 28 0 21 127 285 193 400 171
299 426 583 687 763 92 63 248 155 320 189 19 9 78 36 130 61 52 24 169 69
260 100 200 67 306 92 545 126 97 14 314 12 426 -4z m-6075 -60 c342 -46 657
-178 939 -394 168 -128 332 -297 478 -491 112 -151 209 -311 312 -520 113
-227 154 -333 244 -625 17 -55 35 -113 40 -130 34 -109 93 -398 126 -620 39
-261 53 -848 27 -1115 -33 -326 -73 -559 -138 -795 -136 -489 -363 -939 -632
-1250 -54 -63 -223 -234 -261 -263 -18 -15 -61 -49 -94 -76 -126 -100 -330
-219 -492 -286 -174 -72 -293 -108 -560 -170 -195 -45 -561 -50 -790 -11 -153
27 -346 89 -504 163 -423 197 -789 540 -1088 1019 -78 124 -283 527 -283 556
0 2 -11 32 -24 66 -54 142 -84 225 -96 267 -7 25 -16 56 -20 70 -78 255 -128
491 -164 775 -49 382 -49 824 0 1185 23 172 77 446 104 530 4 14 22 72 40 130
193 622 518 1109 971 1458 168 128 395 253 644 352 200 80 449 146 665 175
134 18 423 18 556 0z m-4780 -4910 c258 -35 533 -117 734 -219 410 -208 653
-386 1024 -752 144 -143 376 -427 514 -632 112 -165 292 -492 365 -662 117
-273 169 -448 247 -830 5 -25 14 -120 21 -212 42 -595 -162 -1120 -561 -1446
-36 -30 -72 -59 -81 -67 -41 -32 -171 -116 -239 -153 -80 -44 -274 -129 -325
-142 -236 -63 -299 -75 -462 -90 -144 -12 -392 7 -523 40 -19 5 -57 14 -85 20
-107 24 -185 49 -330 107 -48 19 -292 138 -319 156 -11 6 -54 33 -95 59 -498
311 -946 783 -1284 1353 -170 286 -315 619 -406 931 -35 118 -77 324 -102 499
-17 117 -17 496 0 590 31 169 77 354 108 425 40 95 120 250 152 295 149 210
269 327 482 467 333 219 768 317 1165 263z m15347 -26 c127 -25 191 -44 276
-79 61 -25 219 -113 231 -128 3 -4 25 -23 50 -42 189 -145 351 -385 459 -680
39 -107 86 -307 118 -500 23 -146 23 -603 -1 -775 -102 -736 -347 -1343 -745
-1845 -66 -84 -334 -361 -386 -400 -11 -8 -43 -33 -70 -56 -76 -62 -199 -145
-308 -207 -54 -32 -101 -57 -103 -57 -3 0 -51 -22 -107 -49 -56 -26 -132 -60
-170 -75 -37 -14 -97 -37 -133 -52 -103 -40 -241 -77 -509 -136 -84 -18 -469
-18 -550 1 -288 65 -452 149 -642 325 -60 56 -203 232 -203 251 0 5 -6 16 -14
24 -28 31 -115 218 -154 331 -59 170 -87 309 -122 599 -14 121 -12 394 4 551
34 312 62 462 135 715 74 255 115 360 258 662 79 168 289 493 413 637 70 82
203 226 246 266 153 143 368 302 529 391 66 36 193 99 200 99 3 0 29 12 58 26
150 74 403 153 622 193 152 28 149 28 343 30 140 1 194 -3 275 -20z m-7263
-3049 c141 -13 358 -44 489 -70 151 -30 421 -101 496 -131 11 -5 56 -20 99
-34 175 -57 452 -175 655 -278 118 -59 226 -116 240 -126 14 -10 59 -35 99
-56 65 -34 557 -356 607 -398 11 -9 99 -78 195 -153 96 -76 177 -140 180 -143
3 -4 73 -65 155 -136 240 -207 711 -684 920 -929 28 -33 70 -82 95 -109 25
-27 54 -62 65 -77 23 -32 177 -222 185 -230 7 -6 102 -132 204 -270 43 -58 87
-118 99 -133 81 -108 340 -491 397 -587 15 -25 68 -110 117 -190 282 -458 520
-952 643 -1335 23 -71 45 -139 50 -150 25 -63 84 -374 101 -534 23 -214 -8
-512 -72 -688 -38 -107 -119 -257 -184 -344 -128 -169 -284 -295 -518 -417
-116 -61 -141 -72 -327 -137 -188 -67 -468 -129 -705 -156 -217 -26 -692 -14
-895 21 -337 59 -691 147 -925 229 -33 12 -85 30 -115 41 -127 44 -231 80
-320 113 -52 20 -111 41 -130 48 -19 7 -54 21 -77 31 -24 10 -47 18 -53 18 -6
0 -18 4 -28 10 -9 5 -37 16 -62 24 -25 8 -81 28 -125 46 -44 17 -123 47 -175
65 -52 18 -124 44 -160 58 -60 23 -414 139 -505 165 -78 23 -180 53 -210 62
-51 16 -373 79 -510 100 -71 11 -219 25 -327 32 -303 18 -523 1 -883 -72 -178
-35 -448 -117 -680 -205 -38 -14 -90 -33 -115 -42 -51 -18 -316 -122 -405
-160 -33 -14 -69 -29 -80 -33 -11 -4 -94 -38 -185 -75 -693 -282 -900 -351
-1365 -455 -42 -9 -141 -23 -285 -40 -111 -13 -386 -13 -508 1 -455 49 -827
210 -1242 534 -74 58 -284 282 -343 365 -36 52 -71 100 -76 106 -5 7 -34 61
-64 120 -81 161 -134 323 -167 514 -35 194 -22 567 24 755 3 11 19 79 36 150
17 72 40 157 51 190 35 107 92 260 100 270 5 5 9 14 9 21 0 29 170 376 266
544 143 251 344 558 457 700 7 9 39 51 71 95 53 71 141 181 157 195 3 3 12 14
20 26 19 29 91 114 248 294 322 371 846 882 1247 1216 150 126 267 222 334
273 41 31 118 91 171 132 53 41 149 112 214 159 64 47 122 90 129 96 6 6 16
13 21 15 6 2 83 54 173 114 90 61 191 128 225 149 99 63 337 206 342 206 3 0
33 17 67 38 103 63 539 282 560 282 4 0 33 12 65 26 127 57 196 83 358 132
171 53 397 91 655 112 74 6 153 12 175 14 67 7 432 -3 555 -14z"/>
</g>
</svg>
